<?xml version="1.0" encoding="UTF-8"?>
<svg xmlns="http://www.w3.org/2000/svg" xmlns:xlink="http://www.w3.org/1999/xlink" width="100pt" height="100pt" viewBox="0 0 100 100" version="1.1">
<g id="surface38147266">
<path style=" stroke:none;fill-rule:nonzero;fill:rgb(96.078432%,94.117647%,88.235295%);fill-opacity:1;" d="M 30.574219 16 C 23.40625 16 17.574219 21.832031 17.574219 29 L 17.574219 68 C 17.574219 75.167969 23.40625 81 30.574219 81 L 69.574219 81 C 76.742188 81 82.574219 75.167969 82.574219 68 L 82.574219 29 C 82.574219 21.832031 76.742188 16 69.574219 16 Z M 30.574219 18 L 69.574219 18 C 75.640625 18 80.574219 22.933594 80.574219 29 L 80.574219 68 C 80.574219 74.066406 75.640625 79 69.574219 79 L 30.574219 79 C 24.507812 79 19.574219 74.066406 19.574219 68 L 19.574219 29 C 19.574219 22.933594 24.507812 18 30.574219 18 Z M 33.414062 21 C 27.4375 21 22.574219 25.863281 22.574219 31.835938 L 22.574219 65.160156 C 22.574219 71.136719 27.4375 76 33.414062 76 L 66.738281 76 C 72.714844 76 77.574219 71.136719 77.574219 65.160156 L 77.574219 46.5 C 77.574219 46.222656 77.351562 46 77.074219 46 C 76.796875 46 76.574219 46.222656 76.574219 46.5 L 76.574219 65.160156 C 76.574219 70.585938 72.164062 75 66.738281 75 L 33.414062 75 C 27.988281 75 23.574219 70.585938 23.574219 65.160156 L 23.574219 31.835938 C 23.574219 26.414062 27.988281 22 33.414062 22 L 67.074219 22 C 67.351562 22 67.574219 21.777344 67.574219 21.5 C 67.574219 21.222656 67.351562 21 67.074219 21 Z M 52.039062 32 C 49.597656 32.003906 47.703125 32.660156 46.417969 33.953125 C 45.1875 35.1875 44.566406 36.914062 44.574219 39.082031 L 45.074219 39.136719 L 44.574219 39.136719 L 44.574219 43 L 42.074219 43 C 41.796875 43 41.574219 43.222656 41.574219 43.5 L 41.574219 48.5 C 41.574219 48.777344 41.796875 49 42.074219 49 L 44.574219 49 L 44.574219 64.5 C 44.574219 64.777344 44.796875 65 45.074219 65 L 52.074219 65 C 52.351562 65 52.574219 64.777344 52.574219 64.5 L 52.574219 49 L 56.1875 49 C 56.433594 49 56.640625 48.820312 56.679688 48.578125 C 56.683594 48.554688 57.074219 46.140625 57.257812 43.535156 C 57.269531 43.394531 57.21875 43.261719 57.121094 43.160156 C 57.027344 43.058594 56.898438 43 56.757812 43 L 51.574219 43 L 51.574219 39.800781 C 51.574219 39.550781 52.046875 39 52.515625 39 L 57.074219 39 C 57.351562 39 57.574219 38.777344 57.574219 38.5 L 57.574219 32.5 C 57.574219 32.222656 57.351562 32 57.074219 32 Z M 52.039062 33 L 56.574219 33 L 56.574219 38 L 52.519531 38 C 51.574219 38 50.574219 38.925781 50.574219 39.800781 L 50.574219 43.5 C 50.574219 43.777344 50.796875 44 51.074219 44 L 56.21875 44 C 56.078125 45.71875 55.863281 47.277344 55.757812 48 L 52.074219 48 C 51.796875 48 51.574219 48.222656 51.574219 48.5 L 51.574219 64 L 45.574219 64 L 45.574219 48.5 C 45.574219 48.222656 45.351562 48 45.074219 48 L 42.574219 48 L 42.574219 44 L 45.074219 44 C 45.351562 44 45.574219 43.777344 45.574219 43.5 L 45.574219 39.078125 C 45.566406 37.183594 46.089844 35.699219 47.128906 34.660156 C 48.21875 33.558594 49.871094 33.003906 52.039062 33 Z M 77.074219 36 C 76.796875 36 76.574219 36.222656 76.574219 36.5 L 76.574219 38.5 C 76.574219 38.777344 76.796875 39 77.074219 39 C 77.351562 39 77.574219 38.777344 77.574219 38.5 L 77.574219 36.5 C 77.574219 36.222656 77.351562 36 77.074219 36 Z M 77.074219 40 C 76.796875 40 76.574219 40.222656 76.574219 40.5 L 76.574219 44.5 C 76.574219 44.777344 76.796875 45 77.074219 45 C 77.351562 45 77.574219 44.777344 77.574219 44.5 L 77.574219 40.5 C 77.574219 40.222656 77.351562 40 77.074219 40 Z M 77.074219 40 "/>
</g>
</svg>
