<svg xmlns="http://www.w3.org/2000/svg" viewBox="0 0 277.89 184.48"><defs><style>.cls-1{fill:red;}.cls-1,.cls-2,.cls-3{stroke:#000;stroke-miterlimit:10;stroke-width:2.86px;}.cls-2{fill:none;}.cls-3{fill:blue;}</style></defs><title>Fichier 2</title><g id="Calque_2" data-name="Calque 2"><g id="Calque_1-2" data-name="Calque 1"><path class="cls-1" d="M194.64,91.4a27.9,27.9,0,0,0-55.74,1.72A27.91,27.91,0,0,1,83.23,96a10,10,0,0,1-.07-1.1c0-.49,0-1-.06-1.43v-.6c0-.29,0-.56,0-.84a55.78,55.78,0,0,1,111.55-.59Z"/><path class="cls-2" d="M83.1,92.83v.6c0-.1,0-.21,0-.31A2.81,2.81,0,0,1,83.1,92.83Z"/><path class="cls-3" d="M194.64,91.4V92c0,1.68-.07,3.36-.22,5A55.78,55.78,0,0,1,83.23,96a27.91,27.91,0,0,0,55.67-2.84,27.9,27.9,0,0,1,55.74-1.72Z"/><path class="cls-2" d="M194.7,93.12a24.84,24.84,0,0,1-.28,3.87c.15-1.64.22-3.32.22-5V91.4C194.69,92,194.7,92.54,194.7,93.12Z"/><rect x="3.91" y="27.81" width="58.42" height="8.84" transform="translate(-13.05 30.32) rotate(-41.85)"/><rect x="12.35" y="37.22" width="58.42" height="8.84" transform="translate(-17.18 38.35) rotate(-41.85)"/><rect x="216.23" y="27.77" width="58.42" height="8.84" transform="translate(391.48 232.06) rotate(-133.63)"/><rect x="12.93" y="138.76" width="58.42" height="8.84" transform="translate(-32.43 272.48) rotate(-133.63)"/><rect x="-5.85" y="155.31" width="58.42" height="8.84" transform="translate(-76.15 286.84) rotate(-133.63)"/><rect x="8.85" y="135.73" width="26.12" height="8.84" transform="translate(-64.41 252.72) rotate(-133.63)"/><rect x="30.35" y="158.29" width="26.12" height="8.84" transform="translate(-44.41 306.4) rotate(-133.63)"/><rect x="211.92" y="24.02" width="26.84" height="8.84" transform="translate(360.23 211.18) rotate(-133.63)"/><rect x="233.72" y="46.89" width="26.84" height="8.84" transform="translate(380.52 265.6) rotate(-133.63)"/><rect x="235.49" y="128.55" width="26.84" height="8.84" transform="translate(-27.15 191.51) rotate(-40.08)"/><rect x="210.97" y="149.18" width="26.84" height="8.84" transform="translate(-46.2 180.57) rotate(-40.08)"/><rect x="243.45" y="138.01" width="26.84" height="8.84" transform="translate(-31.37 198.86) rotate(-40.08)"/><rect x="218.93" y="158.64" width="26.84" height="8.84" transform="translate(-50.42 187.92) rotate(-40.08)"/><rect x="226.84" y="168.04" width="26.84" height="8.84" transform="translate(-54.61 195.22) rotate(-40.08)"/><rect x="251.36" y="147.4" width="26.84" height="8.84" transform="translate(-35.56 206.16) rotate(-40.08)"/><rect x="230.11" y="8.34" width="26.84" height="8.84" transform="translate(402.31 197.85) rotate(-133.63)"/><rect x="251.86" y="31.16" width="26.84" height="8.84" transform="translate(422.56 252.16) rotate(-133.63)"/><rect x="-4.5" y="18.42" width="58.42" height="8.84" transform="translate(-8.93 22.31) rotate(-41.85)"/></g></g></svg>